 <svg xmlns="http://www.w3.org/2000/svg" fill="none" viewBox="0 0 283 64"><path fill="#fff" d="M141 16c-11 0-19 7-19 18s9 18 20 18c8 0 14-3 17-8l-8-5c-2 3-5 4-9 4-5 0-9-3-10-7h28v-3c0-11-8-17-19-17zm-9 15c1-4 5-7 9-7 5 0 9 3 9 7h-18zm-27-15c-11 0-19 7-19 18s9 18 20 18c8 0 14-3 17-8l-8-5c-2 3-5 4-9 4-5 0-9-3-10-7h28v-3c0-11-8-17-19-17zm-9 15c1-4 5-7 9-7 5 0 9 3 9 7h-18zM17 0L0 32h34L17 0zm54 14l-20 36h12l3-6h22l3 6h12L71 14zm4 23l7-14 7 14H75zm100-23l-20 36h12l3-6h22l3 6h12L175 14zm4 23l7-14 7 14h-14z"/></svg>
